PathFileType	4	(X/Y/Z)	/Users/itak/Documents/Research/Walk-IL/dataset/trc/00079_00006.trc
DataRate	CameraRate	NumFrames	NumMarkers	Units	OrigDataRate	OrigDataStartFrame	OrigNumFrames
100.000000	100.000000	4	53	mm	100.000000	65	527
Frame#	Time	RPSI			LPSI			L3			STRN			T10			C7			CLAV			RBAK			LBAK			LSHO			LUPA			LAEL			LAOL			LWTS			LWPS			LFRA			LIFD			LHPS			LHTS			RSHO			RUPA			RAEL			RAOL			RWTS			RWPS			RFRA			RIFD			RHTS			RHPS			RBHD			LFHD			RFHD			LBHD			LHIP			RHIP			RASI			LASI			LKNE			LTHI			LANK			LTIP			LTOE			LMT1			LMT5			LHEE			RKNE			RTHI			RANK			RTIP			RTOE			RMT1			RMT5			RHEE			
		X1	Y1	Z1	X2	Y2	Z2	X3	Y3	Z3	X4	Y4	Z4	X5	Y5	Z5	X6	Y6	Z6	X7	Y7	Z7	X8	Y8	Z8	X9	Y9	Z9	X10	Y10	Z10	X11	Y11	Z11	X12	Y12	Z12	X13	Y13	Z13	X14	Y14	Z14	X15	Y15	Z15	X16	Y16	Z16	X17	Y17	Z17	X18	Y18	Z18	X19	Y19	Z19	X20	Y20	Z20	X21	Y21	Z21	X22	Y22	Z22	X23	Y23	Z23	X24	Y24	Z24	X25	Y25	Z25	X26	Y26	Z26	X27	Y27	Z27	X28	Y28	Z28	X29	Y29	Z29	X30	Y30	Z30	X31	Y31	Z31	X32	Y32	Z32	X33	Y33	Z33	X34	Y34	Z34	X35	Y35	Z35	X36	Y36	Z36	X37	Y37	Z37	X38	Y38	Z38	X39	Y39	Z39	X40	Y40	Z40	X41	Y41	Z41	X42	Y42	Z42	X43	Y43	Z43	X44	Y44	Z44	X45	Y45	Z45	X46	Y46	Z46	X47	Y47	Z47	X48	Y48	Z48	X49	Y49	Z49	X50	Y50	Z50	X51	Y51	Z51	X52	Y52	Z52	X53	Y53	Z53	

66	0.65	-1348.576416015625	1043.35498046875	446.8745422363281	-1358.239990234375	1036.106323242188	271.1513977050781	-1348.097412109375	1086.562133789062	350.1777648925781	-1103.479736328125	1289.207397460938	353.5150756835938	-1369.194458007812	1219.882446289062	343.4023132324219	-1314.775512695312	1488.116943359375	343.7973937988281	-1133.393188476562	1403.837036132812	351.1470947265625	-1376.80224609375	1348.495361328125	415.9906005859375	-1332.81494140625	1450.732299804688	242.1167297363281	-1227.901245117188	1457.51025390625	172.6206970214844	-1241.966064453125	1330.649658203125	94.10683441162109	-1223.054565429688	1116.014282226562	74.04827880859375	-1286.432861328125	1100.56884765625	158.8859252929688	-1126.380737304688	879.6942138671875	137.8528900146484	-1185.420043945312	866.2044067382812	79.79351043701172	-1200.631469726562	1007.119018554688	67.19674682617188	-1110.982055664062	692.0421142578125	156.83642578125	-1150.90869140625	786.9835205078125	84.47150421142578	-1098.624267578125	799.1820678710938	132.4481506347656	-1255.889526367188	1451.735717773438	521.0913696289062	-1268.267211914062	1382.22216796875	584.0158081054688	-1295.368896484375	1115.93701171875	607.294189453125	-1275.102294921875	1095.54931640625	511.5756225585938	-1148.04833984375	865.4398193359375	572.1944580078125	-1220.297119140625	849.1942138671875	619.8132934570312	-1281.168823242188	1036.117309570312	613.2113647460938	-1139.1494140625	678.59521484375	554.1793823242188	-1122.391845703125	766.3455810546875	571.6534423828125	-1179.6611328125	761.8610229492188	623.349853515625	-1281.1123046875	1673.425537109375	288.7763671875	-1109.527099609375	1700.200927734375	417.1425476074219	-1105.850341796875	1706.460815429688	291.4944763183594	-1276.406616210938	1659.2666015625	426.1055603027344	-1257.666137695312	966.2802124023438	181.5688781738281	-1282.141235351562	968.71435546875	521.5697021484375	-1157.770141601562	980.9605102539062	498.832275390625	-1143.054931640625	973.7008056640625	228.6290435791016	-1219.469848632812	500.8332214355469	234.516845703125	-1238.76025390625	643.0352783203125	195.6507720947266	-1319.46533203125	51.95783615112305	223.3948364257812	-1278.6826171875	268.8316345214844	214.3244323730469	-1114.096069335938	46.45716094970703	240.7025909423828	-1166.040649414062	45.29077529907227	290.7422790527344	-1214.669677734375	45.20049285888672	190.1953582763672	-1376.946533203125	49.36699676513672	295.0533447265625	-1227.548706054688	518.681884765625	497.453369140625	-1206.8623046875	790.6220703125	528.8505249023438	-1324.829223632812	46.350341796875	487.8265991210938	-1254.209838867188	400.2522277832031	501.3489074707031	-1104.715576171875	44.08398818969727	465.0182495117188	-1163.787475585938	49.42185974121094	421.1814880371094	-1201.914428710938	49.40951919555664	510.9181213378906	-1366.545043945312	47.77922058105469	427.0293273925781	
67	0.66	-1348.553466796875	1043.370727539062	446.8788757324219	-1358.143432617188	1036.120361328125	271.1633911132812	-1348.026733398438	1086.56787109375	350.1924743652344	-1103.351684570312	1289.195434570312	353.5959777832031	-1369.110229492188	1219.889404296875	343.3972778320312	-1314.710205078125	1488.11669921875	343.7986145019531	-1133.286743164062	1403.844848632812	351.2416381835938	-1376.72265625	1348.476318359375	415.9777526855469	-1332.679565429688	1450.74072265625	242.1552581787109	-1227.75830078125	1457.521728515625	172.6729278564453	-1241.8662109375	1330.657348632812	94.11093139648438	-1222.874145507812	1116.032470703125	74.08194732666016	-1286.312744140625	1100.578735351562	158.88330078125	-1126.185668945312	879.7056274414062	137.8777160644531	-1185.24853515625	866.205078125	79.80062866210938	-1200.469116210938	1007.135314941406	67.20867156982422	-1110.911987304688	692.0332641601562	156.8186645507812	-1150.805908203125	786.9976806640625	84.44464111328125	-1098.4384765625	799.2222290039062	132.4351501464844	-1255.811157226562	1451.715209960938	521.1656494140625	-1268.242431640625	1382.202026367188	584.0449829101562	-1295.368774414062	1115.917114257812	607.2883911132812	-1275.044799804688	1095.51806640625	511.5757446289062	-1148.075805664062	865.42626953125	572.1948852539062	-1220.32470703125	849.1452026367188	619.8070678710938	-1281.1630859375	1036.094360351562	613.1939086914062	-1139.167358398438	678.5636596679688	554.1688842773438	-1122.407958984375	766.3009643554688	571.6851806640625	-1179.712280273438	761.82568359375	623.337890625	-1280.911743164062	1673.481689453125	288.8295288085938	-1109.366455078125	1700.162963867188	417.2362365722656	-1105.669067382812	1706.4306640625	291.5685424804688	-1276.220703125	1659.31298828125	426.1910400390625	-1257.58740234375	966.2780151367188	181.5782928466797	-1282.137817382812	968.730712890625	521.6038818359375	-1157.769409179688	980.9681396484375	498.8671264648438	-1142.994384765625	973.6861572265625	228.6637725830078	-1219.477905273438	500.8283996582031	234.5279541015625	-1238.738647460938	643.031005859375	195.6832427978516	-1319.468505859375	51.95672225952148	223.3956604003906	-1278.68408203125	268.8283386230469	214.3327331542969	-1114.08349609375	46.45016098022461	240.7030944824219	-1166.035400390625	45.28864669799805	290.7408142089844	-1214.666381835938	45.19762802124023	190.1965179443359	-1376.9482421875	49.36387634277344	295.0505981445312	-1227.536865234375	518.6787719726562	497.4768981933594	-1206.85791015625	790.6149291992188	528.8964233398438	-1324.829223632812	46.34805297851562	487.8274841308594	-1254.24609375	400.2510986328125	501.3740234375	-1104.699462890625	44.12543106079102	465.046142578125	-1163.79296875	49.42448425292969	421.17919921875	-1201.919677734375	49.4096565246582	510.9201049804688	-1366.541870117188	47.78444671630859	427.0245971679688	
68	0.67	-1348.530883789062	1043.386108398438	446.8833618164062	-1358.03466796875	1036.136596679688	271.17431640625	-1347.94482421875	1086.571655273438	350.2096862792969	-1103.217651367188	1289.183227539062	353.6787414550781	-1369.014770507812	1219.89208984375	343.3995361328125	-1314.642578125	1488.11376953125	343.8050537109375	-1133.177978515625	1403.850463867188	351.3373413085938	-1376.639892578125	1348.457397460938	415.9672546386719	-1332.543090820312	1450.744506835938	242.1952819824219	-1227.613159179688	1457.531372070312	172.7281188964844	-1241.76806640625	1330.660400390625	94.11618041992188	-1222.681396484375	1116.048583984375	74.1207275390625	-1286.185791015625	1100.58642578125	158.8849029541016	-1125.977294921875	879.7136840820312	137.9003753662109	-1185.074829101562	866.2034301757812	79.80303955078125	-1200.31201171875	1007.149169921875	67.21821594238281	-1110.852783203125	692.022705078125	156.7900543212891	-1150.698364257812	787.0075073242188	84.41624450683594	-1098.251342773438	799.249755859375	132.4284362792969	-1255.7333984375	1451.695556640625	521.2434692382812	-1268.2177734375	1382.179443359375	584.0758056640625	-1295.367553710938	1115.8994140625	607.2828979492188	-1274.965087890625	1095.48876953125	511.5675659179688	-1148.099365234375	865.4111938476562	572.19677734375	-1220.347900390625	849.097900390625	619.8017578125	-1281.152221679688	1036.072631835938	613.1725463867188	-1139.1923828125	678.5243530273438	554.15283203125	-1122.418701171875	766.2575073242188	571.708251953125	-1179.768920898438	761.7872924804688	623.321533203125	-1280.70751953125	1673.539428710938	288.8768005371094	-1109.188232421875	1700.117553710938	417.3287048339844	-1105.465576171875	1706.39501953125	291.6483154296875	-1276.03125	1659.362915039062	426.2859802246094	-1257.500610351562	966.2756958007812	181.5815582275391	-1282.134033203125	968.7520751953125	521.6427612304688	-1157.774658203125	980.9765014648438	498.9064636230469	-1142.921875	973.6663208007812	228.7067565917969	-1219.493774414062	500.8206481933594	234.5352478027344	-1238.723999023438	643.0277709960938	195.715087890625	-1319.471435546875	51.95401000976562	223.3934478759766	-1278.69580078125	268.8260498046875	214.3355712890625	-1114.070434570312	46.44270706176758	240.7038116455078	-1166.030151367188	45.28769302368164	290.7384948730469	-1214.66357421875	45.1941032409668	190.19580078125	-1376.951416015625	49.35910034179688	295.0452575683594	-1227.532836914062	518.6781005859375	497.5006713867188	-1206.859741210938	790.6068725585938	528.9472045898438	-1324.828491210938	46.34554672241211	487.828369140625	-1254.292602539062	400.2495727539062	501.4031677246094	-1104.68115234375	44.16514205932617	465.0718994140625	-1163.802124023438	49.42295074462891	421.1788940429688	-1201.924438476562	49.40969467163086	510.9215087890625	-1366.537841796875	47.79044342041016	427.0184631347656	
69	0.68	-1348.509399414062	1043.400268554688	446.8890991210938	-1357.913940429688	1036.154052734375	271.1856994628906	-1347.852294921875	1086.572509765625	350.2296752929688	-1103.078125	1289.169921875	353.7637329101562	-1368.909790039062	1219.890258789062	343.408447265625	-1314.570068359375	1488.108032226562	343.8184814453125	-1133.066284179688	1403.852172851562	351.4341430664062	-1376.554931640625	1348.438598632812	415.959716796875	-1332.404541015625	1450.744262695312	242.237060546875	-1227.46484375	1457.5390625	172.7865905761719	-1241.668212890625	1330.659301757812	94.12487030029297	-1222.478271484375	1116.062622070312	74.16382598876953	-1286.050415039062	1100.592041015625	158.8926086425781	-1125.757568359375	879.7171630859375	137.9211730957031	-1184.898315429688	866.19921875	79.80182647705078	-1200.158813476562	1007.160827636719	67.22718048095703	-1110.80078125	692.0109252929688	156.74951171875	-1150.588134765625	787.0137329101562	84.38571166992188	-1098.063842773438	799.2568359375	132.4298400878906	-1255.6552734375	1451.675048828125	521.3250122070312	-1268.194213867188	1382.153564453125	584.1090698242188	-1295.365112304688	1115.88330078125	607.27978515625	-1274.869140625	1095.460205078125	511.5554504394531	-1148.110961914062	865.3923950195312	572.2031860351562	-1220.3662109375	849.0504150390625	619.7969970703125	-1281.13720703125	1036.051635742188	613.1494140625	-1139.223022460938	678.4763793945312	554.1294555664062	-1122.424072265625	766.2139892578125	571.723388671875	-1179.830078125	761.74609375	623.3019409179688	-1280.503540039062	1673.595458984375	288.9195861816406	-1108.993530273438	1700.06298828125	417.4216003417969	-1105.240112304688	1706.352783203125	291.7360229492188	-1275.84130859375	1659.412353515625	426.3897094726562	-1257.403564453125	966.27294921875	181.5795440673828	-1282.129150390625	968.777099609375	521.6857299804688	-1157.78955078125	980.9846801757812	498.9518127441406	-1142.836181640625	973.6394653320312	228.7612609863281	-1219.519287109375	500.81005859375	234.5386505126953	-1238.717407226562	643.0256958007812	195.7470245361328	-1319.474243164062	51.94926071166992	223.3876495361328	-1278.718505859375	268.8247985839844	214.3316650390625	-1114.059448242188	46.43636322021484	240.7045288085938	-1166.0263671875	45.28844451904297	290.7355346679688	-1214.662109375	45.18994140625	190.1927490234375	-1376.9560546875	49.35283279418945	295.0367736816406	-1227.536254882812	518.6799926757812	497.527099609375	-1206.869384765625	790.5983276367188	529.0057373046875	-1324.827026367188	46.34331893920898	487.8285827636719	-1254.347534179688	400.24609375	501.4347839355469	-1104.665771484375	44.19067001342773	465.087158203125	-1163.8154296875	49.41672897338867	421.1802978515625	-1201.927368164062	49.41096496582031	510.9216918945312	-1366.533569335938	47.7961311340332	427.0111999511719	
